<svg width="27" height="26" viewBox="0 0 27 26" fill="none" xmlns="http://www.w3.org/2000/svg">
<rect x="1" y="0.5" width="25" height="25" rx="12.5" fill="#111827" fill-opacity="0.1"/>
<rect x="1" y="0.5" width="25" height="25" rx="12.5" stroke="#E5E7EB"/>
<path d="M18.3125 8.625H16.3438V7.96875C16.3438 7.56264 16.1824 7.17316 15.8953 6.88599C15.6081 6.59883 15.2186 6.4375 14.8125 6.4375H12.1875C11.7814 6.4375 11.3919 6.59883 11.1047 6.88599C10.8176 7.17316 10.6562 7.56264 10.6562 7.96875V8.625H8.6875C8.51345 8.625 8.34653 8.69414 8.22346 8.81721C8.10039 8.94028 8.03125 9.1072 8.03125 9.28125C8.03125 9.4553 8.10039 9.62222 8.22346 9.74529C8.34653 9.86836 8.51345 9.9375 8.6875 9.9375H8.90625V17.375C8.90625 17.6651 9.02148 17.9433 9.2266 18.1484C9.43172 18.3535 9.70992 18.4688 10 18.4688H17C17.2901 18.4688 17.5683 18.3535 17.7734 18.1484C17.9785 17.9433 18.0938 17.6651 18.0938 17.375V9.9375H18.3125C18.4865 9.9375 18.6535 9.86836 18.7765 9.74529C18.8996 9.62222 18.9688 9.4553 18.9688 9.28125C18.9688 9.1072 18.8996 8.94028 18.7765 8.81721C18.6535 8.69414 18.4865 8.625 18.3125 8.625ZM11.9688 7.96875C11.9688 7.91073 11.9918 7.85509 12.0328 7.81407C12.0738 7.77305 12.1295 7.75 12.1875 7.75H14.8125C14.8705 7.75 14.9262 7.77305 14.9672 7.81407C15.0082 7.85509 15.0312 7.91073 15.0312 7.96875V8.625H11.9688V7.96875ZM16.7812 17.1562H10.2188V9.9375H16.7812V17.1562ZM12.8438 11.6875V15.1875C12.8438 15.3615 12.7746 15.5285 12.6515 15.6515C12.5285 15.7746 12.3615 15.8438 12.1875 15.8438C12.0135 15.8438 11.8465 15.7746 11.7235 15.6515C11.6004 15.5285 11.5312 15.3615 11.5312 15.1875V11.6875C11.5312 11.5135 11.6004 11.3465 11.7235 11.2235C11.8465 11.1004 12.0135 11.0312 12.1875 11.0312C12.3615 11.0312 12.5285 11.1004 12.6515 11.2235C12.7746 11.3465 12.8438 11.5135 12.8438 11.6875ZM15.4688 11.6875V15.1875C15.4688 15.3615 15.3996 15.5285 15.2765 15.6515C15.1535 15.7746 14.9865 15.8438 14.8125 15.8438C14.6385 15.8438 14.4715 15.7746 14.3485 15.6515C14.2254 15.5285 14.1562 15.3615 14.1562 15.1875V11.6875C14.1562 11.5135 14.2254 11.3465 14.3485 11.2235C14.4715 11.1004 14.6385 11.0312 14.8125 11.0312C14.9865 11.0312 15.1535 11.1004 15.2765 11.2235C15.3996 11.3465 15.4688 11.5135 15.4688 11.6875Z" fill="#E5E7EB"/>
</svg>
