<svg width="20" height="21" viewBox="0 0 20 21" fill="none" xmlns="http://www.w3.org/2000/svg">
<path d="M18.3111 16.7361C17.24 14.8562 15.5674 13.3914 13.5627 12.5775C14.5596 11.8298 15.296 10.7874 15.6676 9.59788C16.0392 8.40839 16.0271 7.13214 15.633 5.94991C15.2389 4.76768 14.4829 3.73942 13.4719 3.01076C12.461 2.28211 11.2464 1.89001 10.0002 1.89001C8.75401 1.89001 7.53942 2.28211 6.52847 3.01076C5.51752 3.73942 4.76146 4.76768 4.36738 5.94991C3.9733 7.13214 3.96119 8.40839 4.33276 9.59788C4.70433 10.7874 5.44075 11.8298 6.43769 12.5775C4.43294 13.3914 2.76038 14.8562 1.68925 16.7361C1.62288 16.8428 1.57864 16.9618 1.55917 17.086C1.5397 17.2101 1.54539 17.3369 1.57591 17.4588C1.60642 17.5808 1.66114 17.6953 1.7368 17.7956C1.81247 17.896 1.90753 17.9801 2.01635 18.043C2.12517 18.1058 2.24552 18.1462 2.37025 18.1616C2.49497 18.177 2.62153 18.1672 2.74239 18.1328C2.86325 18.0983 2.97595 18.0399 3.07379 17.961C3.17162 17.8822 3.2526 17.7844 3.31191 17.6736C4.72753 15.2267 7.22753 13.7674 10.0002 13.7674C12.7728 13.7674 15.2728 15.2275 16.6885 17.6736C16.817 17.8803 17.0209 18.0289 17.2569 18.0879C17.493 18.147 17.7428 18.112 17.9536 17.9903C18.1643 17.8685 18.3194 17.6696 18.3861 17.4355C18.4529 17.2015 18.426 16.9507 18.3111 16.7361ZM5.93769 7.82986C5.93769 7.02637 6.17595 6.24093 6.62234 5.57285C7.06874 4.90478 7.70321 4.38408 8.44554 4.0766C9.18786 3.76912 10.0047 3.68867 10.7927 3.84542C11.5808 4.00217 12.3047 4.38909 12.8728 4.95724C13.441 5.52539 13.8279 6.24926 13.9846 7.0373C14.1414 7.82535 14.0609 8.64218 13.7534 9.38451C13.446 10.1268 12.9253 10.7613 12.2572 11.2077C11.5891 11.6541 10.8037 11.8924 10.0002 11.8924C8.92313 11.8911 7.89053 11.4627 7.12894 10.7011C6.36734 9.93951 5.93893 8.90692 5.93769 7.82986Z" fill="#6B7280"/>
</svg>
