<svg width="54" height="20" viewBox="0 0 54 20" fill="none" xmlns="http://www.w3.org/2000/svg">
<path d="M2.968 15L0.336 8.056H1.568L3.654 13.866L5.754 8.056H6.958L4.326 15H2.968ZM9.30278 15V6.516L7.72078 6.866V6.054L9.69478 5.2H10.4928V15H9.30278ZM12.8974 15.07C12.6641 15.07 12.4681 14.9953 12.3094 14.846C12.1601 14.6873 12.0854 14.496 12.0854 14.272C12.0854 14.048 12.1601 13.8613 12.3094 13.712C12.4681 13.5533 12.6641 13.474 12.8974 13.474C13.1214 13.474 13.3081 13.5533 13.4574 13.712C13.6161 13.8613 13.6954 14.048 13.6954 14.272C13.6954 14.496 13.6161 14.6873 13.4574 14.846C13.3081 14.9953 13.1214 15.07 12.8974 15.07ZM18.5572 15.168C17.6892 15.168 16.9379 14.958 16.3032 14.538C15.6779 14.1087 15.1972 13.516 14.8612 12.76C14.5252 11.9947 14.3572 11.108 14.3572 10.1C14.3572 9.092 14.5252 8.21 14.8612 7.454C15.1972 6.68867 15.6779 6.096 16.3032 5.676C16.9379 5.24667 17.6892 5.032 18.5572 5.032C19.4252 5.032 20.1719 5.24667 20.7972 5.676C21.4226 6.096 21.9032 6.68867 22.2392 7.454C22.5752 8.21 22.7432 9.092 22.7432 10.1C22.7432 11.108 22.5752 11.9947 22.2392 12.76C21.9032 13.516 21.4226 14.1087 20.7972 14.538C20.1719 14.958 19.4252 15.168 18.5572 15.168ZM18.5572 14.132C19.1266 14.132 19.6352 13.9733 20.0832 13.656C20.5406 13.3293 20.8952 12.8673 21.1472 12.27C21.4086 11.6633 21.5392 10.94 21.5392 10.1C21.5392 9.26 21.4086 8.54133 21.1472 7.944C20.8952 7.34667 20.5406 6.88933 20.0832 6.572C19.6352 6.24533 19.1266 6.082 18.5572 6.082C17.9786 6.082 17.4652 6.24533 17.0172 6.572C16.5692 6.88933 16.2146 7.34667 15.9532 7.944C15.6919 8.54133 15.5612 9.26 15.5612 10.1C15.5612 10.94 15.6919 11.6633 15.9532 12.27C16.2146 12.8673 16.5692 13.3293 17.0172 13.656C17.4652 13.9733 17.9786 14.132 18.5572 14.132Z" fill="#6B7280"/>
<path d="M48.4132 10.6632L42.1632 16.9132C41.9871 17.0894 41.7483 17.1883 41.4992 17.1883C41.2501 17.1883 41.0112 17.0894 40.8351 16.9132C40.659 16.7371 40.5601 16.4983 40.5601 16.2492C40.5601 16.0001 40.659 15.7612 40.8351 15.5851L46.4218 9.99997L40.8367 4.41325C40.7495 4.32604 40.6803 4.22251 40.6331 4.10857C40.5859 3.99463 40.5616 3.87251 40.5616 3.74919C40.5616 3.62586 40.5859 3.50374 40.6331 3.3898C40.6803 3.27586 40.7495 3.17233 40.8367 3.08512C40.9239 2.99792 41.0274 2.92874 41.1414 2.88155C41.2553 2.83435 41.3774 2.81006 41.5007 2.81006C41.6241 2.81006 41.7462 2.83435 41.8601 2.88155C41.9741 2.92874 42.0776 2.99792 42.1648 3.08512L48.4148 9.33512C48.5021 9.42232 48.5713 9.5259 48.6185 9.63991C48.6657 9.75392 48.6899 9.87612 48.6898 9.99951C48.6896 10.1229 48.6651 10.245 48.6177 10.3589C48.5702 10.4728 48.5007 10.5763 48.4132 10.6632Z" fill="#D1D5DB"/>
</svg>
