<svg width="45" height="44" viewBox="0 0 45 44" fill="none" xmlns="http://www.w3.org/2000/svg">
<path d="M37.625 6.875H7.375C6.64565 6.875 5.94618 7.16473 5.43046 7.68046C4.91473 8.19618 4.625 8.89565 4.625 9.625V34.375C4.625 35.1043 4.91473 35.8038 5.43046 36.3195C5.94618 36.8353 6.64565 37.125 7.375 37.125H37.625C38.3543 37.125 39.0538 36.8353 39.5695 36.3195C40.0853 35.8038 40.375 35.1043 40.375 34.375V9.625C40.375 8.89565 40.0853 8.19618 39.5695 7.68046C39.0538 7.16473 38.3543 6.875 37.625 6.875ZM27.3125 15.125C27.7204 15.125 28.1192 15.246 28.4584 15.4726C28.7975 15.6992 29.0619 16.0213 29.218 16.3982C29.3741 16.7751 29.415 17.1898 29.3354 17.5899C29.2558 17.99 29.0594 18.3575 28.7709 18.6459C28.4825 18.9344 28.115 19.1308 27.7149 19.2104C27.3148 19.29 26.9001 19.2491 26.5232 19.093C26.1463 18.9369 25.8242 18.6725 25.5976 18.3334C25.371 17.9942 25.25 17.5954 25.25 17.1875C25.25 16.6405 25.4673 16.1159 25.8541 15.7291C26.2409 15.3423 26.7655 15.125 27.3125 15.125ZM7.375 34.375V29.5625L16.3125 20.625L30.0625 34.375H7.375ZM37.625 34.375H33.952L27.7645 28.1875L31.202 24.75L37.625 31.1747V34.375Z" fill="#1877C9"/>
</svg>
