<svg width="20" height="21" viewBox="0 0 20 21" fill="none" xmlns="http://www.w3.org/2000/svg">
<g clip-path="url(#clip0_520_5464)">
<path d="M16.25 6.26733H14.0625V4.70483C14.0625 3.62739 13.6345 2.59408 12.8726 1.83221C12.1108 1.07035 11.0774 0.642334 10 0.642334C8.92256 0.642334 7.88925 1.07035 7.12738 1.83221C6.36551 2.59408 5.9375 3.62739 5.9375 4.70483V6.26733H3.75C3.3356 6.26733 2.93817 6.43195 2.64515 6.72498C2.35212 7.01801 2.1875 7.41543 2.1875 7.82983V16.5798C2.1875 16.9942 2.35212 17.3917 2.64515 17.6847C2.93817 17.9777 3.3356 18.1423 3.75 18.1423H16.25C16.6644 18.1423 17.0618 17.9777 17.3549 17.6847C17.6479 17.3917 17.8125 16.9942 17.8125 16.5798V7.82983C17.8125 7.41543 17.6479 7.01801 17.3549 6.72498C17.0618 6.43195 16.6644 6.26733 16.25 6.26733ZM7.8125 4.70483C7.8125 4.12467 8.04297 3.56827 8.4532 3.15804C8.86344 2.7478 9.41984 2.51733 10 2.51733C10.5802 2.51733 11.1366 2.7478 11.5468 3.15804C11.957 3.56827 12.1875 4.12467 12.1875 4.70483V6.26733H7.8125V4.70483ZM15.9375 16.2673H4.0625V8.14233H15.9375V16.2673ZM10 9.07983C9.41999 9.08005 8.85811 9.28193 8.41059 9.65089C7.96307 10.0198 7.65776 10.5329 7.54696 11.1023C7.43617 11.6716 7.52677 12.2617 7.80326 12.7716C8.07974 13.2814 8.52491 13.6793 9.0625 13.897V14.3923C9.0625 14.641 9.16127 14.8794 9.33709 15.0552C9.5129 15.2311 9.75136 15.3298 10 15.3298C10.2486 15.3298 10.4871 15.2311 10.6629 15.0552C10.8387 14.8794 10.9375 14.641 10.9375 14.3923V13.897C11.4751 13.6793 11.9203 13.2814 12.1967 12.7716C12.4732 12.2617 12.5638 11.6716 12.453 11.1023C12.3422 10.5329 12.0369 10.0198 11.5894 9.65089C11.1419 9.28193 10.58 9.08005 10 9.07983ZM10 10.9548C10.1236 10.9548 10.2445 10.9915 10.3472 11.0602C10.45 11.1288 10.5301 11.2265 10.5774 11.3407C10.6247 11.4549 10.6371 11.5805 10.613 11.7018C10.5889 11.823 10.5294 11.9344 10.4419 12.0218C10.3545 12.1092 10.2432 12.1687 10.1219 12.1928C10.0007 12.2169 9.87503 12.2046 9.76082 12.1573C9.64662 12.11 9.54901 12.0298 9.48033 11.9271C9.41166 11.8243 9.375 11.7034 9.375 11.5798C9.375 11.4141 9.44085 11.2551 9.55806 11.1379C9.67527 11.0207 9.83424 10.9548 10 10.9548Z" fill="#6B7280"/>
</g>
<defs>
<clipPath id="clip0_520_5464">
<rect width="20" height="20" fill="white" transform="translate(0 0.329834)"/>
</clipPath>
</defs>
</svg>
