<svg width="86" height="24" viewBox="0 0 86 24" fill="none" xmlns="http://www.w3.org/2000/svg">
<path d="M27.7901 4.65947V0.202251C27.0242 0.0760138 26.2 0.00732422 25.3413 0.00732422C24.4827 0.00732422 23.6584 0.0760138 22.8925 0.202251V4.65947H27.7901Z" fill="white"/>
<path d="M22.8925 4.65947V0.202251C20.0392 0.672524 17.9949 1.94144 17.9949 3.433C17.9949 3.86519 18.1665 4.27868 18.4797 4.65947H22.8925Z" fill="white"/>
<path d="M25.3413 6.85867C26.2 6.85867 27.0242 6.78998 27.7901 6.66374V4.65947H22.8925V6.66374C23.6584 6.78998 24.4827 6.85867 25.3413 6.85867Z" fill="white"/>
<path d="M22.8925 6.66374V4.65947H18.4797C19.2475 5.59285 20.8659 6.32973 22.8925 6.66374Z" fill="white"/>
<path d="M27.7901 6.66374C27.0242 6.78998 26.2 6.85867 25.3413 6.85867C24.4827 6.85867 23.6584 6.78998 22.8925 6.66374V8.61841C23.6584 8.49217 24.4827 8.42348 25.3413 8.42348C26.2 8.42348 27.0242 8.49217 27.7901 8.61841V6.66374Z" fill="white"/>
<path d="M17.9949 4.65947V11.8492C17.9949 10.3576 20.0392 9.08868 22.8925 8.61841V6.66374C20.8659 6.32973 19.2475 5.59285 18.4797 4.65947H17.9949Z" fill="#E5E7EB"/>
<path d="M22.8925 14.7608V8.93749C20.0392 9.36132 17.9949 10.5049 17.9949 11.8492C17.9949 13.1934 20.0392 14.337 22.8925 14.7608Z" fill="#D1D5DB"/>
<path fill-rule="evenodd" clip-rule="evenodd" d="M27.7901 8.93749V14.7608C30.6435 14.337 32.6878 13.1934 32.6878 11.8492C32.6878 10.5049 30.6435 9.36132 27.7901 8.93749Z" fill="#D1D5DB"/>
<path d="M22.8925 19.0388H27.7901V17.0346C27.0242 16.9083 26.2 16.8396 25.3413 16.8396C24.4827 16.8396 23.6584 16.9083 22.8925 17.0346V19.0388Z" fill="white"/>
<path d="M27.7901 19.0388H22.8925V23.4961C23.6584 23.6223 24.4827 23.691 25.3413 23.691C26.2 23.691 27.0242 23.6223 27.7901 23.4961V19.0388Z" fill="white"/>
<path d="M27.7901 19.0388V23.4961C30.6435 23.0258 32.6878 21.7569 32.6878 20.2653C32.6878 19.8331 32.5161 19.4196 32.2029 19.0388H27.7901Z" fill="white"/>
<path d="M27.7901 17.0346V19.0388H32.2029C31.4352 18.1055 29.8167 17.3686 27.7901 17.0346Z" fill="white"/>
<path d="M32.6878 19.0388V11.8492C32.6878 13.2475 30.891 14.4501 28.3154 14.9825C28.2774 14.9904 28.2392 14.9981 28.2009 15.0056C28.066 15.0322 27.929 15.057 27.7901 15.0799V17.0346C29.8167 17.3686 31.4352 18.1055 32.2029 19.0388H32.6878Z" fill="#E5E7EB"/>
<path d="M32.6878 20.2653V19.0388H32.2029C32.5161 19.4196 32.6878 19.8331 32.6878 20.2653Z" fill="#E5E7EB"/>
<path d="M22.8925 15.0799V17.0346C23.6584 16.9083 24.4827 16.8396 25.3413 16.8396C26.2 16.8396 27.0242 16.9083 27.7901 17.0346V15.0799C27.0242 15.2061 26.2 15.2748 25.3413 15.2748C24.4827 15.2748 23.6584 15.2061 22.8925 15.0799Z" fill="white"/>
<path d="M17.9949 3.433V4.65947H18.4797C18.1665 4.27868 17.9949 3.86519 17.9949 3.433Z" fill="#E5E7EB"/>
<path d="M8.42595 23.9999C6.78667 23.9999 5.33317 23.6502 4.06546 22.9508C2.79775 22.2514 1.80325 21.2678 1.08197 20.0001C0.360688 18.7324 4.57764e-05 17.268 4.57764e-05 15.6068C4.57764e-05 13.9238 0.349759 12.4266 1.04919 11.1152C1.77047 9.80376 2.75404 8.78741 3.99989 8.06613C5.2676 7.32299 6.75388 6.95142 8.45873 6.95142C10.0543 6.95142 11.4641 7.30113 12.6881 8.00056C13.9121 8.69998 14.8629 9.66169 15.5404 10.8857C16.2399 12.0878 16.5896 13.432 16.5896 14.9183C16.5896 15.1587 16.5786 15.4101 16.5568 15.6724C16.5568 15.9347 16.5459 16.2079 16.524 16.492H4.16382C4.25125 17.7597 4.68839 18.7542 5.47524 19.4755C6.28395 20.1968 7.2566 20.5574 8.39316 20.5574C9.24559 20.5574 9.95594 20.3717 10.5242 20.0001C11.1144 19.6067 11.5515 19.1039 11.8357 18.492H16.0978C15.7918 19.5192 15.2781 20.4591 14.5569 21.3115C13.8574 22.1421 12.9831 22.7978 11.934 23.2787C10.9067 23.7595 9.73737 23.9999 8.42595 23.9999ZM8.45873 10.3611C7.43145 10.3611 6.52438 10.6562 5.73753 11.2463C4.95067 11.8146 4.44796 12.6889 4.22939 13.8692H12.3274C12.2619 12.7982 11.8684 11.9458 11.1472 11.3119C10.4259 10.678 9.52973 10.3611 8.45873 10.3611Z" fill="#F97303"/>
<path fill-rule="evenodd" clip-rule="evenodd" d="M81.7938 7.34379V23.605H85.9903V7.34379H81.7938Z" fill="white"/>
<path d="M73.5788 23.9985C72.1363 23.9985 70.8686 23.769 69.7758 23.31C68.683 22.8291 67.8087 22.1734 67.153 21.3429C66.4973 20.5124 66.1039 19.5507 65.9728 18.4578H70.202C70.3331 19.0917 70.6828 19.6381 71.2511 20.0971C71.8412 20.5342 72.5953 20.7528 73.5133 20.7528C74.4312 20.7528 75.0979 20.567 75.5131 20.1954C75.9503 19.8239 76.1688 19.3977 76.1688 18.9168C76.1688 18.2174 75.8628 17.7475 75.2509 17.5071C74.6389 17.2448 73.7865 16.9935 72.6936 16.753C71.9942 16.6 71.2839 16.4143 70.5626 16.1957C69.8414 15.9771 69.1748 15.7039 68.5628 15.3761C67.9726 15.0264 67.4918 14.5892 67.1202 14.0647C66.7487 13.5183 66.5629 12.8517 66.5629 12.0648C66.5629 10.6223 67.1312 9.40926 68.2677 8.42572C69.4261 7.44218 71.0435 6.95041 73.1198 6.95041C75.0432 6.95041 76.5732 7.39847 77.7097 8.29458C78.8681 9.1907 79.5566 10.4256 79.7751 11.9993H75.8082C75.5678 10.7971 74.6607 10.1961 73.0871 10.1961C72.3002 10.1961 71.6882 10.3491 71.2511 10.6551C70.8358 10.9611 70.6282 11.3436 70.6282 11.8025C70.6282 12.2834 70.9451 12.6659 71.579 12.95C72.2128 13.2341 73.0543 13.4964 74.1034 13.7368C75.2399 13.9991 76.2781 14.2942 77.2179 14.622C78.1796 14.928 78.9446 15.3979 79.5129 16.0318C80.0811 16.6438 80.3653 17.5289 80.3653 18.6873C80.3871 19.6927 80.1248 20.5998 79.5784 21.4085C79.032 22.2172 78.2452 22.851 77.2179 23.31C76.1907 23.769 74.9776 23.9985 73.5788 23.9985Z" fill="white"/>
<path d="M51.3198 23.605V0H55.5163V13.9335L61.2864 7.34378H66.2697L59.6144 14.7531L67.3516 23.605H62.106L55.5163 15.4416V23.605H51.3198Z" fill="white"/>
<path d="M40.2975 23.9995C38.8987 23.9995 37.7512 23.7809 36.8551 23.3438C35.959 22.8848 35.2924 22.2838 34.8552 21.5406C34.4181 20.7975 34.1996 19.9779 34.1996 19.0818C34.1996 17.5737 34.7897 16.3497 35.9699 15.4099C37.1502 14.4701 38.9206 14.0002 41.2811 14.0002H45.4119V13.6067C45.4119 12.4921 45.095 11.6724 44.4612 11.1479C43.8273 10.6233 43.0405 10.3611 42.1007 10.3611C41.2483 10.3611 40.5051 10.5687 39.8713 10.984C39.2375 11.3774 38.8441 11.9675 38.6911 12.7543H34.593C34.7023 11.5741 35.0957 10.5468 35.7732 9.67258C36.4726 8.79832 37.3687 8.1317 38.4616 7.67271C39.5544 7.19187 40.7784 6.95145 42.1335 6.95145C44.4502 6.95145 46.2753 7.53064 47.6085 8.68904C48.9417 9.84743 49.6084 11.4867 49.6084 13.6067V23.6061H46.0348L45.6414 20.9833C45.1606 21.8576 44.483 22.5788 43.6088 23.1471C42.7564 23.7154 41.6526 23.9995 40.2975 23.9995ZM41.2483 20.721C42.4504 20.721 43.3793 20.3276 44.035 19.5408C44.7125 18.7539 45.1387 17.7813 45.3136 16.6229H41.74C40.6254 16.6229 39.8276 16.8306 39.3468 17.2458C38.8659 17.6393 38.6255 18.131 38.6255 18.7212C38.6255 19.355 38.8659 19.8468 39.3468 20.1965C39.8276 20.5462 40.4614 20.721 41.2483 20.721Z" fill="white"/>
</svg>
