<svg width="25" height="24" viewBox="0 0 25 24" fill="none" xmlns="http://www.w3.org/2000/svg">
<path d="M21.6209 15.5559C20.8072 14.1562 20.375 12.1472 20.375 9.75C20.375 7.66142 19.5453 5.65838 18.0685 4.18153C16.5916 2.70469 14.5886 1.875 12.5 1.875C10.4114 1.875 8.40838 2.70469 6.93153 4.18153C5.45468 5.65838 4.625 7.66142 4.625 9.75C4.625 12.1481 4.19468 14.1562 3.38093 15.5559C3.21488 15.8414 3.12687 16.1656 3.12571 16.4958C3.12456 16.8261 3.21032 17.1509 3.37437 17.4375C3.53739 17.7243 3.77399 17.9624 4.05977 18.1272C4.34554 18.292 4.67012 18.3775 5 18.375H8.39187C8.4849 19.4003 8.95794 20.3537 9.71808 21.048C10.4782 21.7423 11.4705 22.1273 12.5 22.1273C13.5295 22.1273 14.5218 21.7423 15.2819 21.048C16.042 20.3537 16.5151 19.4003 16.6081 18.375H20C20.3294 18.377 20.6534 18.2913 20.9386 18.1265C21.2239 17.9617 21.46 17.7239 21.6228 17.4375C21.7876 17.1513 21.8741 16.8267 21.8738 16.4965C21.8735 16.1662 21.7863 15.8418 21.6209 15.5559ZM12.5 19.875C12.0678 19.8751 11.6488 19.7258 11.3139 19.4525C10.9791 19.1791 10.7489 18.7985 10.6625 18.375H14.3375C14.251 18.7985 14.0209 19.1791 13.6861 19.4525C13.3512 19.7258 12.9322 19.8751 12.5 19.875ZM5.62437 16.125C6.45406 14.4375 6.875 12.2944 6.875 9.75C6.875 8.25816 7.46763 6.82742 8.52252 5.77252C9.57741 4.71763 11.0082 4.125 12.5 4.125C13.9918 4.125 15.4226 4.71763 16.4775 5.77252C17.5324 6.82742 18.125 8.25816 18.125 9.75C18.125 12.2934 18.545 14.4375 19.3747 16.125H5.62437Z" fill="white"/>
</svg>
