<svg width="24" height="24" viewBox="0 0 24 24" fill="none" xmlns="http://www.w3.org/2000/svg">
<path d="M22.7812 9.00475C22.6672 8.65537 22.4531 8.34719 22.1654 8.11851C21.8777 7.88982 21.5292 7.75073 21.1631 7.7185L15.8194 7.25631L13.7287 2.27444C13.5849 1.93565 13.3446 1.64668 13.0377 1.44354C12.7307 1.2404 12.3708 1.13208 12.0028 1.13208C11.6347 1.13208 11.2748 1.2404 10.9679 1.44354C10.661 1.64668 10.4207 1.93565 10.2769 2.27444L8.18341 7.25631L2.83966 7.7185C2.47159 7.74898 2.12071 7.88748 1.83106 8.11663C1.54141 8.34578 1.32589 8.65536 1.21153 9.00655C1.09717 9.35773 1.08908 9.73486 1.18826 10.0906C1.28744 10.4464 1.48949 10.7649 1.76904 11.0063L5.83029 14.5501L4.61154 19.8226C4.52795 20.1816 4.55206 20.5573 4.68083 20.9027C4.8096 21.2481 5.03733 21.5479 5.33555 21.7646C5.63376 21.9812 5.98924 22.1052 6.35753 22.121C6.72582 22.1367 7.09058 22.0436 7.40623 21.8532L12 19.0632L16.5937 21.8532C16.9094 22.0433 17.274 22.1362 17.6421 22.1203C18.0102 22.1044 18.3655 21.9804 18.6636 21.7637C18.9616 21.5471 19.1892 21.2474 19.318 20.9022C19.4467 20.557 19.4709 20.1815 19.3875 19.8226L18.1687 14.5501L22.23 11.0063C22.5088 10.7641 22.7098 10.4449 22.8079 10.0888C22.906 9.7327 22.8967 9.35558 22.7812 9.00475ZM16.5234 13.0004C16.2663 13.2241 16.075 13.5136 15.9701 13.8378C15.8653 14.1621 15.8507 14.5088 15.9281 14.8407L16.9959 19.4644L12.9703 17.0194C12.6779 16.8414 12.3423 16.7473 12 16.7473C11.6577 16.7473 11.322 16.8414 11.0297 17.0194L7.00404 19.4644L8.07185 14.8407C8.14923 14.5088 8.1347 14.1621 8.02981 13.8378C7.92492 13.5136 7.73364 13.2241 7.47654 13.0004L3.9056 9.88506L8.60623 9.47819C8.94662 9.44904 9.27249 9.32708 9.54837 9.12558C9.82426 8.92408 10.0396 8.65076 10.1709 8.33538L12 3.97694L13.829 8.33538C13.9604 8.65076 14.1757 8.92408 14.4516 9.12558C14.7275 9.32708 15.0533 9.44904 15.3937 9.47819L20.0943 9.88506L16.5234 13.0004Z" fill="#6B7280"/>
</svg>
