<svg width="27" height="26" viewBox="0 0 27 26" fill="none" xmlns="http://www.w3.org/2000/svg">
<rect x="1" y="0.5" width="25" height="25" rx="12.5" fill="#111827" fill-opacity="0.1"/>
<rect x="1" y="0.5" width="25" height="25" rx="12.5" stroke="#E5E7EB"/>
<path d="M11.3125 11.9062H8.6875C8.51345 11.9062 8.34653 11.8371 8.22346 11.714C8.10039 11.591 8.03125 11.424 8.03125 11.25V8.625C8.03125 8.45095 8.10039 8.28403 8.22346 8.16096C8.34653 8.03789 8.51345 7.96875 8.6875 7.96875C8.86155 7.96875 9.02847 8.03789 9.15154 8.16096C9.27461 8.28403 9.34375 8.45095 9.34375 8.625V9.38297C10.2543 8.48609 11.6565 7.53125 13.5 7.53125C15.9314 7.53125 17.4025 8.97445 17.4643 9.0357C17.586 9.15889 17.654 9.32517 17.6536 9.49831C17.6533 9.67146 17.5845 9.83743 17.4623 9.96008C17.34 10.0827 17.1743 10.1521 17.0012 10.1531C16.828 10.1541 16.6615 10.0866 16.5379 9.96539C16.5138 9.94242 15.3594 8.84375 13.5 8.84375C11.9141 8.84375 10.7142 9.81063 10 10.5938H11.3125C11.4865 10.5938 11.6535 10.6629 11.7765 10.786C11.8996 10.909 11.9688 11.076 11.9688 11.25C11.9688 11.424 11.8996 11.591 11.7765 11.714C11.6535 11.8371 11.4865 11.9062 11.3125 11.9062ZM18.3125 14.0938H15.6875C15.5135 14.0938 15.3465 14.1629 15.2235 14.286C15.1004 14.409 15.0312 14.576 15.0312 14.75C15.0312 14.924 15.1004 15.091 15.2235 15.214C15.3465 15.3371 15.5135 15.4062 15.6875 15.4062H17C16.2891 16.1894 15.0859 17.1562 13.5 17.1562C11.6406 17.1562 10.4862 16.0576 10.4621 16.0341C10.3385 15.9128 10.172 15.8454 9.99883 15.8463C9.82569 15.8473 9.65996 15.9167 9.53774 16.0394C9.41553 16.162 9.34674 16.328 9.34635 16.5011C9.34597 16.6743 9.41403 16.8406 9.5357 16.9637C9.5975 17.0255 11.0686 18.4688 13.5 18.4688C15.3435 18.4688 16.7457 17.5139 17.6562 16.617V17.375C17.6562 17.549 17.7254 17.716 17.8485 17.839C17.9715 17.9621 18.1385 18.0312 18.3125 18.0312C18.4865 18.0312 18.6535 17.9621 18.7765 17.839C18.8996 17.716 18.9688 17.549 18.9688 17.375V14.75C18.9688 14.576 18.8996 14.409 18.7765 14.286C18.6535 14.1629 18.4865 14.0938 18.3125 14.0938Z" fill="#E5E7EB"/>
</svg>
