<svg width="24" height="24" viewBox="0 0 24 24" fill="none" xmlns="http://www.w3.org/2000/svg">
<path d="M19.5 1.875H15.75C15.4516 1.875 15.1655 1.99353 14.9545 2.2045C14.7435 2.41548 14.625 2.70163 14.625 3C14.625 3.29837 14.7435 3.58452 14.9545 3.7955C15.1655 4.00647 15.4516 4.125 15.75 4.125H16.7812L15.315 5.59406C14.5642 4.97016 13.6801 4.52701 12.731 4.29879C11.7819 4.07057 10.793 4.06337 9.84063 4.27774C8.88827 4.49212 7.99786 4.92234 7.23806 5.53524C6.47825 6.14814 5.86935 6.92735 5.45831 7.81278C5.04726 8.69821 4.84504 9.66622 4.86725 10.6422C4.88946 11.6181 5.1355 12.5759 5.5864 13.4417C6.0373 14.3075 6.68101 15.0582 7.46791 15.6359C8.2548 16.2136 9.16386 16.6029 10.125 16.7738V17.625H8.24999C7.95162 17.625 7.66547 17.7435 7.45449 17.9545C7.24351 18.1655 7.12498 18.4516 7.12499 18.75C7.12499 19.0484 7.24351 19.3345 7.45449 19.5455C7.66547 19.7565 7.95162 19.875 8.24999 19.875H10.125V21.75C10.125 22.0484 10.2435 22.3345 10.4545 22.5455C10.6655 22.7565 10.9516 22.875 11.25 22.875C11.5484 22.875 11.8345 22.7565 12.0455 22.5455C12.2565 22.3345 12.375 22.0484 12.375 21.75V19.875H14.25C14.5484 19.875 14.8345 19.7565 15.0455 19.5455C15.2565 19.3345 15.375 19.0484 15.375 18.75C15.375 18.4516 15.2565 18.1655 15.0455 17.9545C14.8345 17.7435 14.5484 17.625 14.25 17.625H12.375V16.7738C13.3818 16.5942 14.3306 16.1747 15.1411 15.5509C15.9515 14.9271 16.5998 14.1173 17.0311 13.1899C17.4624 12.2626 17.664 11.245 17.6189 10.2233C17.5738 9.20154 17.2832 8.20571 16.7719 7.32L18.375 5.71875V6.75C18.375 7.04837 18.4935 7.33452 18.7045 7.5455C18.9155 7.75647 19.2016 7.875 19.5 7.875C19.7984 7.875 20.0845 7.75647 20.2955 7.5455C20.5065 7.33452 20.625 7.04837 20.625 6.75V3C20.625 2.70163 20.5065 2.41548 20.2955 2.2045C20.0845 1.99353 19.7984 1.875 19.5 1.875ZM11.25 14.625C10.4341 14.625 9.63661 14.3831 8.95826 13.9298C8.27991 13.4766 7.75119 12.8323 7.43898 12.0786C7.12677 11.3248 7.04508 10.4954 7.20425 9.69525C7.36341 8.89508 7.75628 8.16008 8.33317 7.58318C8.91006 7.00629 9.64507 6.61343 10.4452 6.45426C11.2454 6.2951 12.0748 6.37679 12.8286 6.689C13.5823 7.00121 14.2265 7.52992 14.6798 8.20827C15.1331 8.88663 15.375 9.68415 15.375 10.5C15.3737 11.5936 14.9387 12.6421 14.1654 13.4154C13.3921 14.1888 12.3436 14.6238 11.25 14.625Z" fill="#6B7280"/>
</svg>
