<svg width="25" height="24" viewBox="0 0 25 24" fill="none" xmlns="http://www.w3.org/2000/svg">
<g clip-path="url(#clip0_94_1875)">
<path fill-rule="evenodd" clip-rule="evenodd" d="M4.25 3.375H20.75C21.2473 3.375 21.7242 3.57254 22.0758 3.92417C22.4275 4.27581 22.625 4.75272 22.625 5.25V19.5C22.625 19.6918 22.5759 19.8804 22.4825 20.0479C22.3891 20.2154 22.2544 20.3562 22.0912 20.457C21.9281 20.5578 21.7419 20.6152 21.5503 20.6237C21.3587 20.6323 21.1681 20.5918 20.9966 20.5059L18.5 19.2581L16.0034 20.5059C15.8471 20.5841 15.6748 20.6249 15.5 20.6249C15.3252 20.6249 15.1529 20.5841 14.9966 20.5059L12.5 19.2581L10.0034 20.5059C9.84714 20.5841 9.67477 20.6249 9.5 20.6249C9.32523 20.6249 9.15286 20.5841 8.99656 20.5059L6.5 19.2581L4.00344 20.5059C3.83193 20.5918 3.64133 20.6323 3.44974 20.6237C3.25814 20.6152 3.07192 20.5578 2.90876 20.457C2.7456 20.3562 2.61091 20.2154 2.51749 20.0479C2.42407 19.8804 2.37502 19.6918 2.375 19.5V5.25C2.375 4.75272 2.57254 4.27581 2.92417 3.92417C3.27581 3.57254 3.75272 3.375 4.25 3.375ZM19.0034 16.9941L20.375 17.6794V5.625H4.625V17.6794L5.99656 16.9941C6.15286 16.9159 6.32523 16.8751 6.5 16.8751C6.67477 16.8751 6.84714 16.9159 7.00344 16.9941L9.5 18.2419L11.9966 16.9941C12.1529 16.9159 12.3252 16.8751 12.5 16.8751C12.6748 16.8751 12.8471 16.9159 13.0034 16.9941L15.5 18.2419L17.9966 16.9941C18.1529 16.9159 18.3252 16.8751 18.5 16.8751C18.6748 16.8751 18.8471 16.9159 19.0034 16.9941Z" fill="#6B7280"/>
<path fill-rule="evenodd" clip-rule="evenodd" d="M17.2908 8.31937C17.234 8.18262 17.1508 8.05843 17.0459 7.95391C16.9416 7.84913 16.8177 7.76593 16.6812 7.70908C16.5448 7.65222 16.3984 7.62282 16.2506 7.62256C16.1027 7.6223 15.9563 7.65118 15.8196 7.70755C15.6829 7.76393 15.5587 7.84669 15.4541 7.9511L11 12.4061L9.54593 10.9539C9.44129 10.8493 9.31705 10.7663 9.18033 10.7096C9.0436 10.653 8.89705 10.6238 8.74906 10.6238C8.60107 10.6238 8.45452 10.653 8.31779 10.7096C8.18107 10.7663 8.05683 10.8493 7.95218 10.9539C7.84754 11.0586 7.76453 11.1828 7.70789 11.3195C7.65126 11.4563 7.62211 11.6028 7.62211 11.7508C7.62211 11.8988 7.65126 12.0453 7.70789 12.1821C7.76453 12.3188 7.84754 12.443 7.95218 12.5477L10.2022 14.7977C10.3067 14.9025 10.4309 14.9858 10.5676 15.0425C10.7044 15.0993 10.851 15.1286 10.9991 15.1286C11.1471 15.1286 11.2937 15.0993 11.4305 15.0425C11.5672 14.9858 11.6914 14.9025 11.7959 14.7977L17.0459 9.54766C17.1508 9.44315 17.234 9.31896 17.2908 9.18221C17.3476 9.04547 17.3768 8.89886 17.3768 8.75079C17.3768 8.60272 17.3476 8.45612 17.2908 8.31937Z" fill="#6B7280"/>
</g>
<defs>
<clipPath id="clip0_94_1875">
<rect width="24" height="24" fill="white" transform="translate(0.5)"/>
</clipPath>
</defs>
</svg>
