<svg width="25" height="24" viewBox="0 0 25 24" fill="none" xmlns="http://www.w3.org/2000/svg">
<g clip-path="url(#clip0_642_931)">
<path fill-rule="evenodd" clip-rule="evenodd" d="M4.25 3.375H20.75C21.2473 3.375 21.7242 3.57254 22.0758 3.92417C22.4275 4.27581 22.625 4.75272 22.625 5.25V19.5C22.625 19.6918 22.5759 19.8804 22.4825 20.0479C22.3891 20.2154 22.2544 20.3562 22.0912 20.457C21.9281 20.5578 21.7419 20.6152 21.5503 20.6237C21.3587 20.6323 21.1681 20.5918 20.9966 20.5059L18.5 19.2581L16.0034 20.5059C15.8471 20.5841 15.6748 20.6249 15.5 20.6249C15.3252 20.6249 15.1529 20.5841 14.9966 20.5059L12.5 19.2581L10.0034 20.5059C9.84714 20.5841 9.67477 20.6249 9.5 20.6249C9.32523 20.6249 9.15286 20.5841 8.99656 20.5059L6.5 19.2581L4.00344 20.5059C3.83193 20.5918 3.64133 20.6323 3.44974 20.6237C3.25814 20.6152 3.07192 20.5578 2.90876 20.457C2.7456 20.3562 2.61091 20.2154 2.51749 20.0479C2.42407 19.8804 2.37502 19.6918 2.375 19.5V5.25C2.375 4.75272 2.57254 4.27581 2.92417 3.92417C3.27581 3.57254 3.75272 3.375 4.25 3.375ZM19.0034 16.9941L20.375 17.6794V5.625H4.625V17.6794L5.99656 16.9941C6.15286 16.9159 6.32523 16.8751 6.5 16.8751C6.67477 16.8751 6.84714 16.9159 7.00344 16.9941L9.5 18.2419L11.9966 16.9941C12.1529 16.9159 12.3252 16.8751 12.5 16.8751C12.6748 16.8751 12.8471 16.9159 13.0034 16.9941L15.5 18.2419L17.9966 16.9941C18.1529 16.9159 18.3252 16.8751 18.5 16.8751C18.6748 16.8751 18.8471 16.9159 19.0034 16.9941Z" fill="#6B7280"/>
<path fill-rule="evenodd" clip-rule="evenodd" d="M15.5455 12.0455C15.7565 11.8345 15.875 11.5484 15.875 11.25C15.875 10.9516 15.7565 10.6655 15.5455 10.4545C15.3345 10.2435 15.0484 10.125 14.75 10.125H13.625V9C13.625 8.70163 13.5065 8.41548 13.2955 8.2045C13.0845 7.99353 12.7984 7.875 12.5 7.875C12.2016 7.875 11.9155 7.99353 11.7045 8.2045C11.4935 8.41548 11.375 8.70163 11.375 9V10.125H10.25C9.95163 10.125 9.66548 10.2435 9.4545 10.4545C9.24353 10.6655 9.125 10.9516 9.125 11.25C9.125 11.5484 9.24353 11.8345 9.4545 12.0455C9.66548 12.2565 9.95163 12.375 10.25 12.375H11.375V13.5C11.375 13.7984 11.4935 14.0845 11.7045 14.2955C11.9155 14.5065 12.2016 14.625 12.5 14.625C12.7984 14.625 13.0845 14.5065 13.2955 14.2955C13.5065 14.0845 13.625 13.7984 13.625 13.5V12.375H14.75C15.0484 12.375 15.3345 12.2565 15.5455 12.0455Z" fill="#6B7280"/>
</g>
<defs>
<clipPath id="clip0_642_931">
<rect width="24" height="24" fill="white" transform="translate(0.5)"/>
</clipPath>
</defs>
</svg>
