<svg width="21" height="18" viewBox="0 0 21 18" fill="none" xmlns="http://www.w3.org/2000/svg">
<path d="M18.75 0.375H2.25C1.75272 0.375 1.27581 0.572544 0.924175 0.924175C0.572544 1.27581 0.375 1.75272 0.375 2.25V16.5C0.375022 16.6918 0.424073 16.8804 0.517493 17.0479C0.610912 17.2154 0.745599 17.3562 0.908762 17.457C1.07192 17.5578 1.25814 17.6152 1.44974 17.6237C1.64133 17.6323 1.83193 17.5918 2.00344 17.5059L4.5 16.2581L6.99656 17.5059C7.15286 17.5841 7.32523 17.6249 7.5 17.6249C7.67477 17.6249 7.84714 17.5841 8.00344 17.5059L10.5 16.2581L12.9966 17.5059C13.1529 17.5841 13.3252 17.6249 13.5 17.6249C13.6748 17.6249 13.8471 17.5841 14.0034 17.5059L16.5 16.2581L18.9966 17.5059C19.1681 17.5918 19.3587 17.6323 19.5503 17.6237C19.7419 17.6152 19.9281 17.5578 20.0912 17.457C20.2544 17.3562 20.3891 17.2154 20.4825 17.0479C20.5759 16.8804 20.625 16.6918 20.625 16.5V2.25C20.625 1.75272 20.4275 1.27581 20.0758 0.924175C19.7242 0.572544 19.2473 0.375 18.75 0.375ZM18.375 14.6794L17.0034 13.9941C16.8471 13.9159 16.6748 13.8751 16.5 13.8751C16.3252 13.8751 16.1529 13.9159 15.9966 13.9941L13.5 15.2419L11.0034 13.9941C10.8471 13.9159 10.6748 13.8751 10.5 13.8751C10.3252 13.8751 10.1529 13.9159 9.99656 13.9941L7.5 15.2419L5.00344 13.9941C4.84714 13.9159 4.67477 13.8751 4.5 13.8751C4.32523 13.8751 4.15286 13.9159 3.99656 13.9941L2.625 14.6794V2.625H18.375V14.6794ZM7.45406 9.70406L8.90625 8.25L7.45406 6.79594C7.34942 6.69129 7.2664 6.56706 7.20977 6.43033C7.15314 6.2936 7.12399 6.14706 7.12399 5.99906C7.12399 5.70018 7.24272 5.41353 7.45406 5.20219C7.66541 4.99084 7.95205 4.87211 8.25094 4.87211C8.54982 4.87211 8.83647 4.99084 9.04781 5.20219L10.5 6.65625L11.9541 5.20125C12.1654 4.98991 12.4521 4.87117 12.7509 4.87117C13.0498 4.87117 13.3365 4.98991 13.5478 5.20125C13.7592 5.41259 13.8779 5.69924 13.8779 5.99813C13.8779 6.29701 13.7592 6.58366 13.5478 6.795L12.0938 8.25L13.5487 9.70406C13.7601 9.91541 13.8788 10.2021 13.8788 10.5009C13.8788 10.7998 13.7601 11.0865 13.5487 11.2978C13.3374 11.5092 13.0508 11.6279 12.7519 11.6279C12.453 11.6279 12.1663 11.5092 11.955 11.2978L10.5 9.84375L9.04594 11.2987C8.83459 11.5101 8.54795 11.6288 8.24906 11.6288C7.95018 11.6288 7.66353 11.5101 7.45219 11.2987C7.24084 11.0874 7.12211 10.8008 7.12211 10.5019C7.12211 10.203 7.24084 9.91634 7.45219 9.705L7.45406 9.70406Z" fill="#6B7280"/>
</svg>
